<svg width="31" height="30" viewBox="0 0 31 30" fill="none" xmlns="http://www.w3.org/2000/svg">
<rect x="0.247009" width="30" height="30" rx="15" fill="#951C21"/>
<path d="M15.247 8C11.3814 8 8.24701 11.1344 8.24701 15C8.24701 18.8656 11.3814 22 15.247 22C19.1126 22 22.247 18.8656 22.247 15C22.247 11.1344 19.1126 8 15.247 8ZM15.247 20.8125C12.0376 20.8125 9.43451 18.2094 9.43451 15C9.43451 11.7906 12.0376 9.1875 15.247 9.1875C18.4564 9.1875 21.0595 11.7906 21.0595 15C21.0595 18.2094 18.4564 20.8125 15.247 20.8125ZM15.3345 12.4891C16.1626 12.4891 16.7251 13.0172 16.7876 13.7922C16.7923 13.8578 16.847 13.9078 16.9126 13.9078H17.7986C17.8392 13.9078 17.872 13.875 17.872 13.8344C17.872 12.4797 16.8033 11.5312 15.3298 11.5312C13.6126 11.5312 12.622 12.6906 12.622 14.6062V15.4234C12.622 17.325 13.6126 18.4688 15.3298 18.4688C16.7986 18.4688 17.872 17.55 17.872 16.2594C17.872 16.2188 17.8392 16.1859 17.7986 16.1859H16.9111C16.8454 16.1859 16.7923 16.2359 16.7861 16.3C16.7204 17.0203 16.1595 17.5156 15.3329 17.5156C14.3126 17.5156 13.7376 16.7672 13.7376 15.4281V14.6062C13.7392 13.2469 14.3158 12.4891 15.3345 12.4891Z" fill="white"/>
</svg>
