<svg width="32" height="32" viewBox="0 0 32 32" fill="none" xmlns="http://www.w3.org/2000/svg">
<path d="M16 2.66669V10.6667L18.6667 8.00002" stroke="#292D32" stroke-width="1.5" stroke-linecap="round" stroke-linejoin="round"/>
<path d="M16.0007 10.6667L13.334 8" stroke="#292D32" stroke-width="1.5" stroke-linecap="round" stroke-linejoin="round"/>
<path d="M9.33333 16C4 16 4 18.3867 4 21.3333V22.6667C4 26.3467 4 29.3333 10.6667 29.3333H21.3333C26.6667 29.3333 28 26.3467 28 22.6667V21.3333C28 18.3867 28 16 22.6667 16C21.3333 16 20.96 16.28 20.2667 16.8L18.9067 18.24C17.3333 19.92 14.6667 19.92 13.08 18.24L11.7333 16.8C11.04 16.28 10.6667 16 9.33333 16Z" stroke="#292D32" stroke-width="1.5" stroke-miterlimit="10" stroke-linecap="round" stroke-linejoin="round"/>
<path d="M6.66602 16V10.6667C6.66602 7.98666 6.66602 5.77332 10.666 5.38666" stroke="#292D32" stroke-width="1.5" stroke-miterlimit="10" stroke-linecap="round" stroke-linejoin="round"/>
<path d="M25.334 16V10.6667C25.334 7.98666 25.334 5.77332 21.334 5.38666" stroke="#292D32" stroke-width="1.5" stroke-miterlimit="10" stroke-linecap="round" stroke-linejoin="round"/>
</svg>
