<svg width="42" height="42" viewBox="0 0 42 42" fill="none" xmlns="http://www.w3.org/2000/svg">
<path d="M36.8549 20.685L36.5749 20.3C36.0849 19.705 35.5074 19.2325 34.8424 18.8825C33.9499 18.375 32.9349 18.1125 31.8849 18.1125H10.0974C9.04736 18.1125 8.04986 18.375 7.13986 18.8825C6.45736 19.25 5.84486 19.7575 5.33736 20.3875C4.33986 21.665 3.86736 23.24 4.02486 24.815L4.67236 32.9875C4.89986 35.455 5.19736 38.5 10.7449 38.5H31.2549C36.8024 38.5 37.0824 35.455 37.3274 32.97L37.9749 24.8325C38.1324 23.3625 37.7474 21.8925 36.8549 20.685ZM25.1824 30.345H16.7999C16.1174 30.345 15.5749 29.785 15.5749 29.12C15.5749 28.455 16.1174 27.895 16.7999 27.895H25.1824C25.8649 27.895 26.4074 28.455 26.4074 29.12C26.4074 29.8025 25.8649 30.345 25.1824 30.345Z" fill="#24231F"/>
<path d="M5.91504 19.7925C6.30004 19.4425 6.68504 19.1275 7.14004 18.8825C8.03254 18.375 9.04754 18.1125 10.0975 18.1125H31.9025C32.9525 18.1125 33.95 18.375 34.86 18.8825C35.315 19.1275 35.7175 19.4425 36.085 19.81V18.8825V17.185C36.085 10.9375 34.1775 9.03 27.93 9.03H23.765C22.995 9.03 22.9775 9.0125 22.5225 8.4175L20.4225 5.6C19.425 4.305 18.6375 3.5 16.135 3.5H14.07C7.82254 3.5 5.91504 5.4075 5.91504 11.655V18.9V19.7925Z" fill="#951C21"/>
</svg>
