<svg width="48" height="49" viewBox="0 0 48 49" fill="none" xmlns="http://www.w3.org/2000/svg">
<circle opacity="0.8" cx="24" cy="24.4895" r="20" stroke="#EBEBEB" stroke-width="8"/>
<circle cx="24" cy="24.4895" r="16" fill="#951C21"/>
<path d="M23.6485 26.0895C22.9125 26.0895 22.2165 25.9455 21.5605 25.6575C20.9205 25.3695 20.3605 24.9775 19.8805 24.4815C19.4005 23.9855 19.0165 23.4015 18.7285 22.7295C18.4565 22.0575 18.3205 21.3375 18.3205 20.5695C18.3205 19.8175 18.4645 19.0895 18.7525 18.3855C19.0565 17.6655 19.4725 17.0335 20.0005 16.4895C20.5445 15.9455 21.1925 15.5135 21.9445 15.1935C22.6965 14.8575 23.5365 14.6895 24.4645 14.6895C25.2805 14.6895 26.0645 14.8495 26.8165 15.1695C27.5685 15.4735 28.2245 15.9295 28.7845 16.5375C29.3605 17.1295 29.8165 17.8655 30.1525 18.7455C30.5045 19.6255 30.6805 20.6335 30.6805 21.7695C30.6805 23.4175 30.4325 24.8735 29.9365 26.1375C29.4405 27.3855 28.7845 28.4335 27.9685 29.2815C27.1685 30.1135 26.2645 30.7455 25.2565 31.1775C24.2485 31.5935 23.2245 31.8015 22.1845 31.8015C21.5445 31.8015 20.8965 31.7135 20.2405 31.5375C21.1685 31.5215 22.0245 31.3535 22.8085 31.0335C23.6085 30.6975 24.3125 30.2255 24.9205 29.6175C25.5445 29.0095 26.0565 28.2815 26.4565 27.4335C26.8565 26.5695 27.1205 25.6095 27.2485 24.5535C27.2325 24.5695 27.1445 24.6655 26.9845 24.8415C26.8245 25.0015 26.5925 25.1775 26.2885 25.3695C25.9845 25.5455 25.6085 25.7135 25.1605 25.8735C24.7285 26.0175 24.2245 26.0895 23.6485 26.0895ZM24.5125 15.1935C24.1285 15.1935 23.7685 15.3295 23.4325 15.6015C23.1125 15.8735 22.8245 16.2415 22.5685 16.7055C22.3285 17.1695 22.1365 17.7135 21.9925 18.3375C21.8485 18.9615 21.7765 19.6335 21.7765 20.3535C21.7765 21.0735 21.8485 21.7455 21.9925 22.3695C22.1365 22.9935 22.3285 23.5375 22.5685 24.0015C22.8245 24.4655 23.1125 24.8335 23.4325 25.1055C23.7685 25.3775 24.1285 25.5135 24.5125 25.5135C24.8965 25.5135 25.2485 25.3775 25.5685 25.1055C25.9045 24.8335 26.1925 24.4655 26.4325 24.0015C26.6885 23.5375 26.8885 22.9935 27.0325 22.3695C27.1765 21.7455 27.2485 21.0735 27.2485 20.3535C27.2485 19.6335 27.1765 18.9615 27.0325 18.3375C26.8885 17.7135 26.6885 17.1695 26.4325 16.7055C26.1925 16.2415 25.9045 15.8735 25.5685 15.6015C25.2485 15.3295 24.8965 15.1935 24.5125 15.1935Z" fill="white"/>
</svg>
