<svg width="48" height="49" viewBox="0 0 48 49" fill="none" xmlns="http://www.w3.org/2000/svg">
<circle opacity="0.8" cx="24" cy="24.2552" r="20" stroke="#EBEBEB" stroke-width="8"/>
<circle cx="24" cy="24.2552" r="16" fill="#951C21"/>
<path d="M25.7393 22.7112C26.3793 22.8552 26.9633 23.0632 27.4913 23.3352C28.0353 23.5912 28.4993 23.9032 28.8833 24.2712C29.2833 24.6392 29.5873 25.0472 29.7953 25.4952C30.0193 25.9272 30.1313 26.3912 30.1313 26.8872C30.1313 27.4952 29.9633 28.0712 29.6273 28.6152C29.3073 29.1432 28.8593 29.6072 28.2833 30.0072C27.7233 30.3912 27.0593 30.7032 26.2913 30.9432C25.5393 31.1672 24.7313 31.2792 23.8673 31.2792C22.9713 31.2792 22.1793 31.1672 21.4913 30.9432C20.8033 30.7192 20.2113 30.4472 19.7153 30.1272C19.2193 29.8072 18.8193 29.4712 18.5153 29.1192C18.2113 28.7512 17.9953 28.4312 17.8673 28.1592C18.3793 28.7512 19.0353 29.1992 19.8353 29.5032C20.6513 29.8072 21.4913 29.9592 22.3553 29.9592C22.9153 29.9592 23.4513 29.8952 23.9633 29.7672C24.4913 29.6232 24.9553 29.4072 25.3553 29.1192C25.7553 28.8312 26.0753 28.4712 26.3153 28.0392C26.5553 27.5912 26.6753 27.0632 26.6753 26.4552C26.6753 25.9752 26.5713 25.5272 26.3633 25.1112C26.1553 24.6952 25.8753 24.3352 25.5233 24.0312C25.1713 23.7112 24.7553 23.4632 24.2753 23.2872C23.8113 23.1112 23.3073 23.0232 22.7633 23.0232C22.7633 22.9752 22.7553 22.8952 22.7393 22.7832C22.7393 22.6552 22.7393 22.5592 22.7393 22.4952C23.1553 22.4952 23.5553 22.3992 23.9393 22.2072C24.3233 22.0152 24.6673 21.7512 24.9713 21.4152C25.2753 21.0792 25.5153 20.6872 25.6913 20.2392C25.8673 19.7752 25.9553 19.2712 25.9553 18.7272C25.9553 18.2152 25.8673 17.7352 25.6913 17.2872C25.5313 16.8232 25.3073 16.4232 25.0193 16.0872C24.7473 15.7512 24.4193 15.4872 24.0353 15.2952C23.6513 15.0872 23.2433 14.9832 22.8113 14.9832C22.2993 14.9832 21.8353 15.1512 21.4193 15.4872C21.0033 15.8072 20.6913 16.2232 20.4833 16.7352C20.2913 17.2312 20.2193 17.7832 20.2673 18.3912C20.3313 18.9992 20.5793 19.5752 21.0113 20.1192L17.8673 17.8392C17.9473 17.5032 18.1233 17.1432 18.3953 16.7592C18.6833 16.3592 19.0673 15.9912 19.5473 15.6552C20.0273 15.3192 20.6033 15.0392 21.2753 14.8152C21.9473 14.5912 22.7153 14.4792 23.5793 14.4792C24.3793 14.4792 25.1313 14.5912 25.8353 14.8152C26.5553 15.0392 27.1793 15.3432 27.7073 15.7272C28.2353 16.1112 28.6513 16.5592 28.9553 17.0712C29.2593 17.5832 29.4113 18.1352 29.4113 18.7272C29.4113 19.6392 29.0673 20.4552 28.3793 21.1752C27.7073 21.8792 26.8273 22.3912 25.7393 22.7112Z" fill="white"/>
</svg>
