<svg width="48" height="49" viewBox="0 0 48 49" fill="none" xmlns="http://www.w3.org/2000/svg">
<circle opacity="0.8" cx="24" cy="24.7448" r="20" stroke="#EBEBEB" stroke-width="8"/>
<circle cx="24" cy="24.7448" r="16" fill="#951C21"/>
<path d="M27.1882 21.6408C28.2762 22.3288 29.1242 23.0728 29.7322 23.8728C30.3562 24.6728 30.6682 25.5608 30.6682 26.5368C30.6682 27.3048 30.5002 28.0088 30.1642 28.6488C29.8442 29.2888 29.4042 29.8408 28.8442 30.3048C28.2842 30.7528 27.6282 31.1048 26.8762 31.3608C26.1402 31.6168 25.3482 31.7448 24.5002 31.7448C23.6522 31.7448 22.8522 31.6168 22.1002 31.3608C21.3482 31.1048 20.6922 30.7608 20.1322 30.3288C19.5722 29.8968 19.1322 29.3928 18.8122 28.8168C18.4922 28.2248 18.3322 27.5928 18.3322 26.9208C18.3322 26.2808 18.4602 25.7128 18.7162 25.2168C18.9882 24.7048 19.3082 24.2648 19.6762 23.8968C20.0602 23.5128 20.4522 23.2008 20.8522 22.9608C21.2522 22.7048 21.5882 22.5128 21.8602 22.3848C21.0122 21.8088 20.3642 21.2168 19.9162 20.6088C19.4682 20.0008 19.2442 19.3448 19.2442 18.6408C19.2442 18.0488 19.3722 17.5128 19.6282 17.0328C19.9002 16.5367 20.2682 16.1128 20.7322 15.7608C21.2122 15.3928 21.7722 15.1128 22.4122 14.9208C23.0522 14.7127 23.7482 14.6087 24.5002 14.6087C25.2522 14.6087 25.9482 14.7127 26.5882 14.9208C27.2282 15.1128 27.7802 15.3848 28.2442 15.7367C28.7082 16.0728 29.0762 16.4648 29.3482 16.9128C29.6202 17.3608 29.7562 17.8328 29.7562 18.3288C29.7562 18.7608 29.6602 19.1608 29.4682 19.5288C29.2762 19.8808 29.0442 20.2008 28.7722 20.4888C28.5162 20.7608 28.2362 20.9928 27.9322 21.1848C27.6442 21.3768 27.3962 21.5288 27.1882 21.6408ZM24.5002 15.1128C24.0682 15.1128 23.6762 15.1768 23.3242 15.3047C22.9722 15.4167 22.6682 15.5688 22.4122 15.7608C22.1722 15.9528 21.9802 16.1687 21.8362 16.4087C21.7082 16.6488 21.6442 16.8888 21.6442 17.1288C21.6442 17.2888 21.6762 17.4648 21.7402 17.6568C21.8042 17.8328 21.9162 18.0248 22.0762 18.2328C22.2522 18.4408 22.4842 18.6648 22.7722 18.9048C23.0762 19.1448 23.4682 19.4088 23.9482 19.6968L26.7082 21.3288C27.2362 21.0728 27.6282 20.7448 27.8842 20.3448C28.1402 19.9288 28.2842 19.4887 28.3162 19.0248C28.3642 18.5608 28.3002 18.0968 28.1242 17.6328C27.9642 17.1688 27.7162 16.7527 27.3802 16.3847C27.0442 16.0008 26.6282 15.6968 26.1322 15.4728C25.6522 15.2328 25.1082 15.1128 24.5002 15.1128ZM24.5002 31.2408C25.0442 31.2408 25.5562 31.1528 26.0362 30.9768C26.5162 30.8008 26.9322 30.5688 27.2842 30.2808C27.6362 29.9928 27.9082 29.6568 28.1002 29.2728C28.3082 28.8728 28.4122 28.4568 28.4122 28.0248C28.4122 27.7048 28.3482 27.4088 28.2202 27.1368C28.1082 26.8488 27.9322 26.5688 27.6922 26.2968C27.4522 26.0248 27.1402 25.7528 26.7562 25.4808C26.3882 25.2088 25.9482 24.9208 25.4362 24.6168L22.3402 22.7208C21.6042 23.2168 21.0362 23.7688 20.6362 24.3768C20.2362 24.9848 19.9802 25.6088 19.8682 26.2488C19.7722 26.8728 19.8122 27.4888 19.9882 28.0968C20.1642 28.6888 20.4522 29.2168 20.8522 29.6808C21.2682 30.1448 21.7802 30.5208 22.3882 30.8088C23.0122 31.0968 23.7162 31.2408 24.5002 31.2408Z" fill="white"/>
</svg>
