<svg width="48" height="49" viewBox="0 0 48 49" fill="none" xmlns="http://www.w3.org/2000/svg">
<circle opacity="0.8" cx="24" cy="24.2552" r="20" stroke="#EBEBEB" stroke-width="8"/>
<circle cx="24" cy="24.2552" r="16" fill="#951C21"/>
<path d="M21.2418 26.1672C20.9538 26.6312 20.8098 27.1352 20.8098 27.6792C20.8098 28.2072 20.9218 28.7032 21.1458 29.1672C21.3698 29.6152 21.6978 29.9912 22.1298 30.2952C22.5778 30.5992 23.0898 30.7512 23.6658 30.7512C24.1458 30.7512 24.6098 30.6312 25.0578 30.3912C25.5218 30.1352 25.9298 29.7912 26.2818 29.3592C26.6338 28.9112 26.9138 28.3832 27.1218 27.7752C27.3458 27.1512 27.4578 26.4792 27.4578 25.7592C27.4578 24.9592 27.3298 24.2632 27.0738 23.6712C26.8338 23.0792 26.5058 22.5912 26.0898 22.2072C25.6738 21.8232 25.1938 21.5352 24.6498 21.3432C24.1218 21.1512 23.5698 21.0552 22.9938 21.0552C22.2738 21.0552 21.5618 21.1992 20.8578 21.4872C20.1538 21.7752 19.5378 22.1992 19.0098 22.7592L18.5778 22.4472L20.0418 14.4552H27.4578C28.0818 14.4552 28.6818 14.3512 29.2578 14.1432C29.8498 13.9352 30.3858 13.6392 30.8658 13.2552L29.7378 17.9112H19.9218L19.2018 21.8712C19.5698 21.5672 20.0018 21.2952 20.4978 21.0552C20.9138 20.8472 21.4178 20.6632 22.0098 20.5032C22.6178 20.3272 23.2978 20.2392 24.0498 20.2392C24.9938 20.2392 25.8818 20.3832 26.7138 20.6712C27.5458 20.9592 28.2738 21.3592 28.8978 21.8712C29.5218 22.3672 30.0098 22.9512 30.3618 23.6232C30.7298 24.2792 30.9138 24.9912 30.9138 25.7592C30.9138 26.5112 30.7298 27.2232 30.3618 27.8952C30.0098 28.5672 29.5218 29.1512 28.8978 29.6472C28.2738 30.1432 27.5458 30.5352 26.7138 30.8232C25.8818 31.1112 24.9938 31.2552 24.0498 31.2552C23.1858 31.2552 22.4098 31.1512 21.7218 30.9432C21.0498 30.7192 20.4658 30.4632 19.9698 30.1752C19.4738 29.8712 19.0658 29.5592 18.7458 29.2392C18.4418 28.9192 18.2258 28.6552 18.0978 28.4472L21.2418 26.1672Z" fill="white"/>
</svg>
