<svg width="48" height="49" viewBox="0 0 48 49" fill="none" xmlns="http://www.w3.org/2000/svg">
<circle opacity="0.8" cx="24" cy="24.2552" r="20" stroke="#EBEBEB" stroke-width="8"/>
<circle cx="24" cy="24.2552" r="16" fill="#951C21"/>
<path d="M25.3525 19.8552C26.0885 19.8552 26.7765 19.9992 27.4165 20.2872C28.0725 20.5752 28.6405 20.9672 29.1205 21.4632C29.6005 21.9592 29.9765 22.5432 30.2485 23.2152C30.5365 23.8712 30.6805 24.5832 30.6805 25.3512C30.6805 26.1192 30.5285 26.8552 30.2245 27.5592C29.9365 28.2632 29.5205 28.8952 28.9765 29.4552C28.4485 29.9992 27.8085 30.4392 27.0565 30.7752C26.3045 31.0952 25.4725 31.2552 24.5605 31.2552C23.7445 31.2552 22.9605 31.1032 22.2085 30.7992C21.4565 30.4792 20.7925 30.0232 20.2165 29.4312C19.6405 28.8232 19.1765 28.0872 18.8245 27.2232C18.4885 26.3432 18.3205 25.3352 18.3205 24.1992C18.3205 22.5352 18.5685 21.0792 19.0645 19.8312C19.5605 18.5672 20.2085 17.5192 21.0085 16.6872C21.8085 15.8392 22.7125 15.2072 23.7205 14.7912C24.7445 14.3592 25.7765 14.1432 26.8165 14.1432C27.4725 14.1432 28.1285 14.2312 28.7845 14.4072C27.8565 14.4232 26.9925 14.5992 26.1925 14.9352C25.3925 15.2712 24.6885 15.7432 24.0805 16.3512C23.4725 16.9592 22.9685 17.6952 22.5685 18.5592C22.1685 19.4072 21.9045 20.3592 21.7765 21.4152C21.7925 21.3832 21.8805 21.2872 22.0405 21.1272C22.2005 20.9672 22.4325 20.7912 22.7365 20.5992C23.0405 20.4072 23.4085 20.2392 23.8405 20.0952C24.2885 19.9352 24.7925 19.8552 25.3525 19.8552ZM24.5125 30.7512C24.8805 30.7512 25.2245 30.6152 25.5445 30.3432C25.8805 30.0712 26.1685 29.7032 26.4085 29.2392C26.6645 28.7592 26.8645 28.2072 27.0085 27.5832C27.1525 26.9592 27.2245 26.2872 27.2245 25.5672C27.2245 24.8632 27.1525 24.1992 27.0085 23.5752C26.8645 22.9512 26.6645 22.4072 26.4085 21.9432C26.1685 21.4792 25.8805 21.1112 25.5445 20.8392C25.2245 20.5672 24.8805 20.4312 24.5125 20.4312C24.1285 20.4312 23.7685 20.5672 23.4325 20.8392C23.1125 21.1112 22.8245 21.4792 22.5685 21.9432C22.3285 22.4072 22.1365 22.9512 21.9925 23.5752C21.8485 24.1992 21.7765 24.8632 21.7765 25.5672C21.7765 26.2872 21.8485 26.9592 21.9925 27.5832C22.1365 28.2072 22.3285 28.7592 22.5685 29.2392C22.8245 29.7032 23.1125 30.0712 23.4325 30.3432C23.7685 30.6152 24.1285 30.7512 24.5125 30.7512Z" fill="white"/>
</svg>
