<svg width="48" height="49" viewBox="0 0 48 49" fill="none" xmlns="http://www.w3.org/2000/svg">
<circle opacity="0.8" cx="24" cy="24.2552" r="20" stroke="#EBEBEB" stroke-width="8"/>
<circle cx="24" cy="24.2552" r="16" fill="#951C21"/>
<path d="M18.8122 17.8632C18.9242 17.4952 19.1242 17.1112 19.4122 16.7112C19.7162 16.3112 20.1002 15.9432 20.5642 15.6072C21.0442 15.2712 21.6042 14.9992 22.2442 14.7912C22.8842 14.5672 23.6042 14.4552 24.4042 14.4552C25.2042 14.4552 25.9562 14.5752 26.6602 14.8152C27.3642 15.0552 27.9722 15.3832 28.4842 15.7992C29.0122 16.1992 29.4282 16.6792 29.7322 17.2392C30.0362 17.7992 30.1882 18.3912 30.1882 19.0152C30.1882 19.6552 30.0282 20.2712 29.7082 20.8632C29.4042 21.4392 29.0042 21.9992 28.5082 22.5432C28.0122 23.0712 27.4442 23.5752 26.8042 24.0552C26.1802 24.5352 25.5482 24.9992 24.9082 25.4472C24.2682 25.8792 23.6442 26.2952 23.0362 26.6952C22.4442 27.0792 21.9402 27.4472 21.5242 27.7992H27.2602C27.8842 27.7992 28.4842 27.6952 29.0602 27.4872C29.6522 27.2792 30.1882 26.9832 30.6682 26.5992L29.5642 31.2552H18.3322C18.8602 30.4872 19.4362 29.7432 20.0602 29.0232C20.6842 28.2872 21.3082 27.5672 21.9322 26.8632C22.5562 26.1432 23.1562 25.4392 23.7322 24.7512C24.3082 24.0472 24.8202 23.3432 25.2682 22.6392C25.7162 21.9352 26.0682 21.2232 26.3242 20.5032C26.5962 19.7832 26.7322 19.0472 26.7322 18.2952C26.7322 17.8312 26.6682 17.3912 26.5402 16.9752C26.4122 16.5432 26.2362 16.1672 26.0122 15.8472C25.7882 15.5272 25.5242 15.2792 25.2202 15.1032C24.9162 14.9112 24.5802 14.8152 24.2122 14.8152C23.7162 14.8152 23.2522 14.9752 22.8202 15.2952C22.4042 15.6152 22.0762 16.0312 21.8362 16.5432C21.5962 17.0392 21.4682 17.6072 21.4522 18.2472C21.4522 18.8872 21.6202 19.5192 21.9562 20.1432L18.8122 17.8632Z" fill="white"/>
</svg>
