<svg width="34" height="34" viewBox="0 0 34 34" fill="none" xmlns="http://www.w3.org/2000/svg">
<path d="M17.1782 11.2472C14.1676 11.2472 11.7108 13.7041 11.7108 16.7146C11.7108 19.7252 14.1676 22.182 17.1782 22.182C20.1887 22.182 22.6456 19.7252 22.6456 16.7146C22.6456 13.7041 20.1887 11.2472 17.1782 11.2472ZM33.5762 16.7146C33.5762 14.4506 33.5967 12.207 33.4696 9.94704C33.3424 7.32204 32.7436 4.99236 30.8241 3.07283C28.9004 1.14919 26.5749 0.554467 23.9499 0.427319C21.6858 0.30017 19.4422 0.320678 17.1823 0.320678C14.9182 0.320678 12.6747 0.30017 10.4147 0.427319C7.7897 0.554467 5.46001 1.15329 3.54048 3.07283C1.61684 4.99646 1.02212 7.32204 0.89497 9.94704C0.767821 12.2111 0.788329 14.4547 0.788329 16.7146C0.788329 18.9746 0.767821 21.2222 0.89497 23.4822C1.02212 26.1072 1.62095 28.4369 3.54048 30.3564C5.46411 32.2801 7.7897 32.8748 10.4147 33.0019C12.6788 33.1291 14.9223 33.1086 17.1823 33.1086C19.4463 33.1086 21.6899 33.1291 23.9499 33.0019C26.5749 32.8748 28.9045 32.2759 30.8241 30.3564C32.7477 28.4328 33.3424 26.1072 33.4696 23.4822C33.6008 21.2222 33.5762 18.9787 33.5762 16.7146ZM17.1782 25.1269C12.5229 25.1269 8.76587 21.3699 8.76587 16.7146C8.76587 12.0593 12.5229 8.30232 17.1782 8.30232C21.8334 8.30232 25.5905 12.0593 25.5905 16.7146C25.5905 21.3699 21.8334 25.1269 17.1782 25.1269ZM25.935 9.92243C24.8481 9.92243 23.9704 9.0447 23.9704 7.95779C23.9704 6.87087 24.8481 5.99314 25.935 5.99314C27.0219 5.99314 27.8997 6.87087 27.8997 7.95779C27.9 8.21588 27.8494 8.4715 27.7508 8.71001C27.6521 8.94852 27.5074 9.16523 27.3249 9.34773C27.1424 9.53022 26.9257 9.67493 26.6872 9.77355C26.4487 9.87216 26.1931 9.92276 25.935 9.92243Z" fill="#951C21"/>
</svg>
