<svg width="36" height="34" viewBox="0 0 36 34" fill="none" xmlns="http://www.w3.org/2000/svg">
<path d="M28.9844 14.0177C29.1079 14.0134 29.231 14.034 29.3464 14.0782C29.4618 14.1225 29.5671 14.1894 29.656 14.2751C29.7449 14.3607 29.8156 14.4634 29.8639 14.5769C29.9121 14.6904 29.937 14.8124 29.937 14.9357C29.937 15.059 29.9121 15.181 29.8639 15.2945C29.8156 15.408 29.7449 15.5106 29.656 15.5963C29.5671 15.682 29.4618 15.7489 29.3464 15.7931C29.231 15.8373 29.1079 15.858 28.9844 15.8537H26.4261V17.4901H28.9844C29.1086 17.484 29.2328 17.5032 29.3495 17.5465C29.4661 17.5898 29.5727 17.6562 29.6628 17.7418C29.7529 17.8274 29.8246 17.9303 29.8736 18.0444C29.9227 18.1585 29.9479 18.2813 29.9479 18.4054C29.9479 18.5295 29.9227 18.6523 29.8736 18.7664C29.8246 18.8804 29.7529 18.9834 29.6628 19.069C29.5727 19.1546 29.4661 19.221 29.3495 19.2643C29.2328 19.3075 29.1086 19.3267 28.9844 19.3207H25.5095C25.2666 19.3198 25.0339 19.223 24.8624 19.0515C24.6908 18.88 24.5943 18.6477 24.594 18.4054V11.4671C24.594 10.962 25.0042 10.5474 25.5095 10.5474H28.9909C29.2271 10.5596 29.4495 10.6619 29.6121 10.8332C29.7747 11.0045 29.865 11.2316 29.8643 11.4675C29.8636 11.7034 29.772 11.93 29.6084 12.1003C29.4447 12.2706 29.2217 12.3716 28.9855 12.3824H26.4272V14.0188L28.9844 14.0177ZM23.369 18.4043C23.367 18.6473 23.2689 18.8796 23.096 19.0508C22.9232 19.222 22.6895 19.3182 22.4459 19.3185C22.3017 19.3199 22.1591 19.2878 22.0294 19.2247C21.8998 19.1617 21.7866 19.0694 21.6989 18.9552L18.1387 14.1257V18.4032C18.1387 18.6459 18.042 18.8788 17.87 19.0504C17.6979 19.2221 17.4645 19.3185 17.2211 19.3185C16.9777 19.3185 16.7443 19.2221 16.5722 19.0504C16.4001 18.8788 16.3034 18.6459 16.3034 18.4032V11.4649C16.3034 11.0733 16.5604 10.722 16.9301 10.5965C17.0214 10.5644 17.1177 10.5485 17.2145 10.5496C17.4989 10.5496 17.7614 10.7034 17.9375 10.9194L21.5261 15.7599V11.4649C21.5261 10.9598 21.9362 10.5453 22.4437 10.5453C22.9512 10.5453 23.3669 10.9598 23.3669 11.4649L23.369 18.4043ZM14.9953 18.4043C14.9941 18.6476 14.8963 18.8806 14.7233 19.0521C14.5503 19.2237 14.3161 19.3199 14.0722 19.3196C13.83 19.3176 13.5985 19.2203 13.4278 19.0489C13.2572 18.8775 13.1614 18.6458 13.1611 18.4043V11.466C13.1611 10.9609 13.5712 10.5463 14.0787 10.5463C14.5851 10.5463 14.9964 10.9609 14.9964 11.466L14.9953 18.4043ZM11.4001 19.3196H7.91873C7.67502 19.319 7.44138 19.2226 7.26854 19.0512C7.0957 18.8798 6.99762 18.6474 6.9956 18.4043V11.466C6.9956 10.9609 7.41123 10.5463 7.91873 10.5463C8.42623 10.5463 8.83638 10.9609 8.83638 11.466V17.489H11.4001C11.6435 17.489 11.8769 17.5854 12.049 17.7571C12.2211 17.9287 12.3178 18.1615 12.3178 18.4043C12.3178 18.647 12.2211 18.8798 12.049 19.0515C11.8769 19.2231 11.6435 19.3196 11.4001 19.3196ZM35.747 14.67C35.747 6.85792 27.8906 0.5 18.247 0.5C8.60342 0.5 0.747009 6.85792 0.747009 14.67C0.747009 21.6705 6.97373 27.5343 15.3814 28.6481C15.9512 28.767 16.7256 29.0234 16.9258 29.5066C17.1019 29.943 17.0395 30.6194 16.9826 31.0809L16.7431 32.5634C16.6742 33.0009 16.3898 34.286 18.27 33.5016C20.1556 32.7172 28.3587 27.5703 32.0326 23.3527C34.545 20.6091 35.747 17.7901 35.747 14.67Z" fill="#24231F"/>
</svg>
