<svg width="34" height="33" viewBox="0 0 34 33" fill="none" xmlns="http://www.w3.org/2000/svg">
<g clip-path="url(#clip0)">
<path d="M28.6119 27.7656H23.731V20.3386C23.731 18.5676 23.6928 16.2916 21.1786 16.2916C18.6335 16.2916 18.2458 18.2126 18.2458 20.2076V27.7646H13.3587V12.4936H18.0529V14.5766H18.1158C18.7717 13.3736 20.367 12.1086 22.7472 12.1086C27.6982 12.1086 28.617 15.2696 28.617 19.3796V27.7646L28.6119 27.7656ZM7.83734 10.4066C7.46431 10.4068 7.09492 10.3355 6.75033 10.197C6.40573 10.0585 6.09271 9.85542 5.82917 9.59941C5.56564 9.3434 5.35679 9.03949 5.21457 8.70508C5.07235 8.37068 4.99956 8.01235 5.00037 7.65063C5.00099 7.10618 5.16807 6.57413 5.48048 6.12175C5.7929 5.66938 6.23664 5.31699 6.75558 5.10914C7.27451 4.90129 7.84536 4.84732 8.39593 4.95404C8.9465 5.06077 9.45207 5.3234 9.84872 5.70873C10.2454 6.09407 10.5153 6.5848 10.6244 7.11888C10.7334 7.65295 10.6767 8.2064 10.4614 8.70923C10.2462 9.21207 9.88194 9.64171 9.41486 9.94384C8.94778 10.246 8.39881 10.407 7.83734 10.4066ZM10.2855 27.7656H5.38812V12.4946H10.2855V27.7656ZM31.0621 0.494629H2.93375C1.59003 0.494629 0.5 1.52563 0.5 2.80163V30.1886C0.5 31.4646 1.59003 32.4956 2.93375 32.4956H31.057C32.3986 32.4956 33.5 31.4646 33.5 30.1886V2.80163C33.5 1.52563 32.3986 0.494629 31.057 0.494629H31.0621Z" fill="#24231F"/>
</g>
<defs>
<clipPath id="clip0">
<rect width="33" height="32" fill="white" transform="translate(0.5 0.494629)"/>
</clipPath>
</defs>
</svg>
