<svg width="34" height="33" viewBox="0 0 34 33" fill="none" xmlns="http://www.w3.org/2000/svg">
<path d="M28.7901 27.9856H23.9092V20.5586C23.9092 18.7876 23.871 16.5116 21.3568 16.5116C18.8117 16.5116 18.424 18.4326 18.424 20.4276V27.9846H13.5369V12.7136H18.2311V14.7966H18.294C18.9499 13.5936 20.5453 12.3286 22.9254 12.3286C27.8764 12.3286 28.7953 15.4896 28.7953 19.5996V27.9846L28.7901 27.9856ZM8.01557 10.6266C7.64254 10.6267 7.27315 10.5555 6.92855 10.417C6.58396 10.2785 6.27093 10.0754 6.0074 9.81938C5.74387 9.56337 5.53501 9.25946 5.39279 8.92505C5.25057 8.59065 5.17778 8.23232 5.1786 7.8706C5.17921 7.32615 5.34629 6.7941 5.65871 6.34173C5.97113 5.88935 6.41486 5.53696 6.9338 5.32911C7.45274 5.12126 8.02358 5.06729 8.57415 5.17401C9.12472 5.28074 9.63029 5.54337 10.0269 5.9287C10.4236 6.31404 10.6935 6.80477 10.8026 7.33885C10.9116 7.87292 10.8549 8.42637 10.6397 8.9292C10.4244 9.43204 10.0602 9.86168 9.59309 10.1638C9.12601 10.4659 8.57703 10.627 8.01557 10.6266ZM10.4638 27.9856H5.56635V12.7146H10.4638V27.9856ZM31.2403 0.7146H3.11197C1.76825 0.7146 0.678223 1.7456 0.678223 3.0216V30.4086C0.678223 31.6846 1.76825 32.7156 3.11197 32.7156H31.2352C32.5768 32.7156 33.6782 31.6846 33.6782 30.4086V3.0216C33.6782 1.7456 32.5768 0.7146 31.2352 0.7146H31.2403Z" fill="#951C21"/>
</svg>
