<svg width="32" height="32" viewBox="0 0 32 32" fill="none" xmlns="http://www.w3.org/2000/svg">
<path opacity="0.4" d="M28.8796 13.92L27.5729 19.4933C26.4529 24.3067 24.2396 26.2533 20.0796 25.8533C19.4129 25.8 18.6929 25.68 17.9196 25.4933L15.6796 24.96C10.1196 23.64 8.39959 20.8933 9.70626 15.32L11.0129 9.73332C11.2796 8.59999 11.5996 7.61332 11.9996 6.79999C13.5596 3.57332 16.2129 2.70666 20.6663 3.75999L22.8929 4.27999C28.4796 5.58666 30.1863 8.34666 28.8796 13.92Z" fill="#951C21"/>
<path d="M20.0805 25.8533C19.2538 26.4133 18.2138 26.88 16.9471 27.2933L14.8405 27.9867C9.54712 29.6933 6.76046 28.2667 5.04045 22.9733L3.33379 17.7067C1.62712 12.4133 3.04045 9.61332 8.33379 7.90665L10.4405 7.21332C10.9871 7.03999 11.5071 6.89332 12.0005 6.79999C11.6005 7.61332 11.2805 8.59999 11.0138 9.73332L9.70712 15.32C8.40045 20.8933 10.1205 23.64 15.6805 24.96L17.9205 25.4933C18.6938 25.68 19.4138 25.8 20.0805 25.8533Z" fill="#951C21"/>
<path d="M23.3198 14.0133C23.2398 14.0133 23.1598 14 23.0665 13.9867L16.5998 12.3467C16.0665 12.2133 15.7465 11.6667 15.8798 11.1333C16.0132 10.6 16.5598 10.28 17.0932 10.4133L23.5598 12.0533C24.0932 12.1867 24.4132 12.7333 24.2798 13.2667C24.1732 13.7067 23.7598 14.0133 23.3198 14.0133Z" fill="#951C21"/>
<path d="M19.4129 18.52C19.3329 18.52 19.2529 18.5067 19.1595 18.4933L15.2795 17.5067C14.7462 17.3733 14.4262 16.8267 14.5595 16.2933C14.6929 15.76 15.2395 15.44 15.7729 15.5733L19.6529 16.56C20.1862 16.6933 20.5062 17.24 20.3729 17.7733C20.2662 18.2267 19.8662 18.52 19.4129 18.52Z" fill="#951C21"/>
</svg>
