<svg width="1440" height="83" viewBox="0 0 1440 83" fill="none" xmlns="http://www.w3.org/2000/svg">
<mask id="mask0" mask-type="alpha" maskUnits="userSpaceOnUse" x="0" y="0" width="1440" height="83">
<rect width="1440" height="83" fill="#F5F5F5"/>
</mask>
<g mask="url(#mask0)">
<rect x="-74" y="91.4966" width="202" height="45" transform="rotate(-40.9897 -74 91.4966)" fill="#951C21"/>
<rect x="54" y="91.4966" width="202" height="45" transform="rotate(-40.9897 54 91.4966)" fill="#951C21"/>
<rect x="182" y="91.4966" width="202" height="45" transform="rotate(-40.9897 182 91.4966)" fill="#951C21"/>
<rect x="310" y="91.4966" width="202" height="45" transform="rotate(-40.9897 310 91.4966)" fill="#951C21"/>
<rect x="438" y="91.4966" width="202" height="45" transform="rotate(-40.9897 438 91.4966)" fill="#951C21"/>
<rect x="566" y="91.4966" width="202" height="45" transform="rotate(-40.9897 566 91.4966)" fill="#951C21"/>
<rect x="694" y="91.4966" width="202" height="45" transform="rotate(-40.9897 694 91.4966)" fill="#951C21"/>
<rect x="822" y="91.4966" width="202" height="45" transform="rotate(-40.9897 822 91.4966)" fill="#951C21"/>
<rect x="950" y="91.4966" width="202" height="45" transform="rotate(-40.9897 950 91.4966)" fill="#951C21"/>
<rect x="1078" y="91.4966" width="202" height="45" transform="rotate(-40.9897 1078 91.4966)" fill="#951C21"/>
<rect x="1206" y="91.4966" width="202" height="45" transform="rotate(-40.9897 1206 91.4966)" fill="#951C21"/>
<rect x="1334" y="91.4966" width="202" height="45" transform="rotate(-40.9897 1334 91.4966)" fill="#951C21"/>
</g>
</svg>
