<svg width="43" height="28" viewBox="0 0 43 28" fill="none" xmlns="http://www.w3.org/2000/svg">
<path d="M41.3676 4.99466C41.1298 4.19963 40.6666 3.47985 40.0272 2.91183C39.3698 2.32635 38.5641 1.90755 37.6861 1.69494C34.4 0.883132 21.2348 0.883133 21.2348 0.883133C15.7463 0.824605 10.2592 1.08203 4.80448 1.65394C3.92643 1.88225 3.12219 2.31042 2.46329 2.90035C1.81588 3.4842 1.34694 4.20417 1.10197 4.99302C0.513516 7.96431 0.227603 10.9813 0.248089 14.0033C0.247369 14.1068 0.247009 14.2103 0.247009 14.3138C0.247009 17.2293 0.532523 20.1405 1.10197 23.0135C1.34169 23.7991 1.80888 24.5158 2.45804 25.0947C3.1072 25.6736 3.9156 26.0918 4.80448 26.3132C8.13428 27.1234 21.2348 27.1234 21.2348 27.1234C26.7302 27.182 32.2243 26.9246 37.6861 26.3526C38.5641 26.14 39.3698 25.7212 40.0272 25.1357C40.6746 24.5568 41.1348 23.8368 41.3658 23.0529C41.9211 20.3216 42.214 17.5496 42.2414 14.7702C42.2437 14.5272 42.2441 14.2841 42.2424 14.041C42.2489 13.6107 42.2485 13.1805 42.2414 12.7505C42.198 10.1462 41.9058 7.55001 41.3676 4.99302V4.99466ZM17.0493 19.6187V8.38949L28.0029 14.0049L17.0493 19.6187Z" fill="#24231F"/>
<path fill-rule="evenodd" clip-rule="evenodd" d="M42.2414 14.7702V12.7505C42.198 10.1462 41.9058 7.55001 41.3676 4.99302V4.99466C41.1298 4.19963 40.6666 3.47985 40.0272 2.91183C39.3698 2.32635 38.5641 1.90755 37.6861 1.69494C34.4 0.883132 21.2348 0.883133 21.2348 0.883133C15.7463 0.824605 10.2592 1.08203 4.80448 1.65394C3.92643 1.88225 3.12219 2.31042 2.46329 2.90035C1.81588 3.4842 1.34694 4.20417 1.10197 4.99302C0.513516 7.96431 0.227603 10.9813 0.248089 14.0033C0.247369 14.1068 0.247009 14.2103 0.247009 14.3138C0.247009 17.2293 0.532523 20.1405 1.10197 23.0135C1.34169 23.7991 1.80888 24.5158 2.45804 25.0947C3.1072 25.6736 3.9156 26.0918 4.80448 26.3132C8.13428 27.1234 21.2348 27.1234 21.2348 27.1234C26.7302 27.182 32.2243 26.9246 37.6861 26.3526C38.5641 26.14 39.3698 25.7212 40.0272 25.1357C40.6746 24.5568 41.1348 23.8368 41.3658 23.0529C41.9211 20.3216 42.214 17.5496 42.2414 14.7702ZM17.0493 8.38949V19.6187L28.0029 14.0049L17.0493 8.38949Z" fill="#24231F"/>
</svg>
